# xmcd CD database file
#
# Track frame offsets:
#	150
#	19822
#	40719
#	62835
#	83398
#	110769
#	141231
#	163611
#	187489
#	212797
#	232574
#	251632
#
# Disc length: 3644 seconds
#
# Revision: 0
# Processed by: cddbd v1.5.1PL2 Copyright (c) Steve Scherf et al.
# Submitted via: CDex 1.51
#
DISCID=a10e3a0c
DTITLE=Nathan Aronow - Hearing Things
DYEAR=2004
DGENRE=Jazz
TTITLE0=Riffed
TTITLE1=Bring It On
TTITLE2=Gimme 5
TTITLE3=Stalkin'
TTITLE4=Waiting for Summer
TTITLE5=Wayne's World
TTITLE6=BLT
TTITLE7=Moneeka
TTITLE8=Night Tripper
TTITLE9=Joy Ride
TTITLE10=Tad Randy
TTITLE11=Involution
EXTD=YEAR: 2004
EXTT0=
EXTT1=
EXTT2=
EXTT3=
EXTT4=
EXTT5=
EXTT6=
EXTT7=
EXTT8=
EXTT9=
EXTT10=
EXTT11=
PLAYORDER=
